<?xml version="1.0" standalone="no"?>
<!DOCTYPE svg PUBLIC "-//W3C//DTD SVG 20010904//EN"
 "http://www.w3.org/TR/2001/REC-SVG-20010904/DTD/svg10.dtd">
<svg version="1.0" xmlns="http://www.w3.org/2000/svg"
 width="200.000000pt" height="200.000000pt" viewBox="0 0 200.000000 200.000000"
 preserveAspectRatio="xMidYMid meet">
<metadata>
Created by potrace 1.15, written by Peter Selinger 2001-2017
</metadata>
<g transform="translate(0.000000,200.000000) scale(0.100000,-0.100000)"
fill="#000000" stroke="none">
<path d="M689 1953 c-17 -52 -60 -95 -126 -125 -278 -127 -368 -179 -460 -267
-129 -125 -133 -269 -8 -331 45 -22 64 -25 200 -28 83 -2 158 -8 168 -13 27
-15 20 -57 -18 -103 -19 -24 -35 -52 -35 -62 0 -28 26 -61 73 -95 l41 -30 17
33 c19 36 12 48 -29 48 -36 0 -82 28 -82 50 0 12 21 35 55 60 30 22 59 49 65
59 39 75 -42 121 -211 121 -119 0 -217 29 -240 71 -17 32 -4 63 48 115 85 84
218 161 387 221 144 51 248 108 309 169 31 32 57 61 57 66 0 4 -13 5 -28 2
-42 -8 -111 14 -143 46 l-28 28 -12 -35z"/>
<path d="M934 1553 c15 -53 26 -148 26 -231 0 -109 -9 -130 -76 -181 -48 -37
-62 -67 -44 -100 6 -12 47 -51 91 -87 44 -37 87 -80 95 -96 9 -17 22 -85 30
-151 15 -127 36 -210 62 -239 23 -27 88 -24 106 5 8 12 27 85 42 162 36 181
38 338 6 467 -24 98 -52 294 -52 369 0 27 -4 49 -10 49 -5 0 -10 -5 -10 -11 0
-23 -240 27 -248 51 -6 18 -24 11 -18 -7z m234 -323 c52 -22 72 -47 72 -86 0
-15 -80 -56 -132 -68 -23 -5 -33 2 -83 59 -51 58 -56 67 -50 96 l7 32 67 -5
c37 -3 89 -15 119 -28z m100 -308 c2 -73 -1 -138 -6 -152 -10 -23 -11 -23 -11
-4 -2 38 -39 132 -76 190 -21 32 -33 60 -28 61 6 2 30 14 54 26 24 13 48 19
54 15 5 -5 11 -66 13 -136z"/>
<path d="M1270 1180 c0 -5 22 -10 49 -10 39 0 62 -8 108 -35 32 -19 72 -35 88
-35 50 0 68 -10 105 -55 23 -28 53 -51 86 -65 44 -18 54 -28 75 -72 13 -28 44
-70 68 -92 23 -23 52 -58 62 -78 l19 -37 -82 -25 c-46 -14 -136 -41 -202 -60
-65 -20 -125 -36 -132 -36 -7 0 -20 13 -28 28 -33 64 -165 168 -181 142 -3 -6
-2 -10 2 -10 5 0 18 -6 28 -14 18 -13 17 -16 -17 -62 -19 -27 -39 -60 -43 -74
-8 -29 -4 -25 50 45 22 28 42 54 47 59 8 10 48 -20 48 -35 0 -5 -36 -36 -80
-69 -44 -33 -80 -65 -80 -71 0 -13 11 -7 96 58 39 29 76 53 82 53 11 0 47 -59
40 -65 -2 -1 -54 -19 -115 -40 -62 -20 -113 -42 -113 -47 0 -6 8 -8 18 -6 34
10 697 212 700 214 10 7 -65 118 -97 143 -21 17 -48 54 -65 89 -26 54 -35 63
-80 83 -32 13 -67 39 -93 69 -38 42 -48 48 -92 52 -32 3 -66 16 -99 36 -41 27
-58 32 -110 32 -35 0 -62 -4 -62 -10z"/>
<path d="M725 1073 c-22 -25 -65 -58 -95 -73 -46 -23 -60 -36 -75 -72 -11 -24
-43 -68 -71 -98 -48 -51 -101 -136 -91 -146 5 -5 678 -204 691 -204 5 0 3 6
-3 14 -6 7 -54 26 -106 41 -52 16 -95 33 -95 39 0 17 29 56 42 56 5 0 27 -13
47 -28 57 -45 91 -65 91 -54 0 6 -27 32 -61 57 -61 48 -67 60 -35 79 14 9 23
4 52 -29 39 -46 44 -40 12 17 -21 37 -22 41 -6 52 30 22 7 26 -32 6 -43 -22
-94 -77 -118 -126 -9 -19 -21 -33 -26 -31 -6 3 -99 30 -206 62 -107 32 -199
62 -203 66 -13 11 10 48 67 109 28 30 60 74 71 98 15 36 29 49 76 72 34 18 72
48 94 75 21 25 46 45 56 45 10 0 21 5 24 10 4 6 -7 10 -27 9 -26 -1 -41 -10
-73 -46z"/>
<path d="M1368 488 l-28 -10 24 -46 c36 -70 100 -152 154 -194 96 -77 183 -93
395 -74 l87 8 0 54 c0 53 -1 54 -25 48 -14 -3 -83 -7 -153 -7 -111 -1 -134 1
-184 21 -81 33 -169 101 -208 161 -18 28 -34 51 -34 50 -1 0 -13 -5 -28 -11z"/>
<path d="M1095 434 c-19 -14 -19 -15 6 -40 21 -20 37 -25 86 -28 34 -1 69 -8
77 -15 22 -18 20 -48 -4 -63 -11 -7 -20 -20 -20 -29 0 -17 -113 -99 -137 -99
-37 0 8 -47 55 -56 17 -4 52 -3 77 1 38 5 45 9 40 23 -13 30 -18 104 -9 111
14 9 34 80 27 97 -3 8 -19 22 -35 30 -26 14 -27 16 -12 31 15 15 15 18 -2 30
-11 8 -31 11 -54 7 -21 -3 -46 -2 -56 4 -14 7 -25 6 -39 -4z"/>
</g>
</svg>
